<svg xmlns="http://www.w3.org/2000/svg" width="129" height="122" viewBox="0 0 129 122" fill="none"><g id="Frame" opacity="0.37" clip-path="url(#clip0_107_502)"><g id="Group"><g id="Group_2"><path id="Vector" d="M97.5 59.689L79.5 121.376H67L70.375 0.624512L81.5 0.749384L97.5 59.689Z" fill="white"></path><path id="Vector_2" d="M79.5 122C79.75 122 80 121.875 80.125 121.501L98.125 59.9386C98.125 59.8137 98.125 59.6888 98.125 59.564L82.125 0.62436C82 0.374616 81.875 0.124872 81.5 0.124872L70.25 0C69.875 0 69.625 0.249744 69.625 0.62436L66.375 121.376C66.375 121.501 66.375 121.75 66.5 121.875C66.625 122 66.75 122 67 122.125L79.5 122ZM96.875 59.6888L79.125 120.751H67.75L71 1.24872L81.125 1.37359L96.875 59.6888Z" fill="#1D3175"></path></g><g id="Group_3"><path id="Vector_3" d="M50 59.4389L35.375 83.5393L25.875 75.9221L33.375 58.9395L26.75 41.9569L36.5 35.5884L50 59.4389Z" fill="white"></path><path id="Vector_4" d="M35.375 84.1636C35.625 84.1636 35.75 84.0387 35.875 83.9138L50.625 59.6887C50.75 59.4389 50.75 59.314 50.625 59.0643L37.125 35.3386C37 35.2137 36.875 35.0889 36.75 35.0889C36.625 35.0889 36.375 35.0889 36.25 35.2137L26.5 41.5822C26.25 41.7071 26.125 42.0817 26.25 42.3314L32.75 58.9394L25.25 75.6723C25.125 75.922 25.25 76.1718 25.375 76.4215L34.875 84.0387C35.125 84.0387 35.25 84.1636 35.375 84.1636ZM49.375 59.314L35.25 82.5402L26.625 75.6723L34 59.1892C34 59.0643 34 58.8146 34 58.6897L27.5 42.2066L36.375 36.4625L49.375 59.314Z" fill="#1D3175"></path></g><g id="Group_4"><path id="Vector_5" d="M27.375 60.4381C28.375 63.5599 31.375 65.6827 34.375 66.5568C38.125 67.5558 37 67.6807 77.75 71.302C90.75 72.5507 113.375 76.7963 127.125 63.1853C127.75 62.5609 128.375 61.8117 128.375 60.9376C128.375 60.1884 127.875 59.4391 127.375 58.9396C117.125 47.2017 99.875 49.3245 84.25 49.5742C66.125 49.824 49.75 51.3224 36.5 52.0717C27.625 52.5712 26.75 58.4402 27.375 60.4381Z" fill="white"></path><path id="Vector_6" d="M98.25 73.5499C108.625 73.5499 119.625 71.5519 127.625 63.685C128.25 62.9357 129 62.0616 129 60.9378C129 59.9388 128.375 59.1896 127.75 58.4403C118.5 47.8262 103.875 48.2008 89.625 48.7003C87.75 48.7003 85.875 48.8252 84 48.8252C70.25 49.0749 57.375 49.949 46.125 50.6983C42.75 50.948 39.5 51.1978 36.5 51.3226C31.5 51.6972 29 53.6952 27.875 55.3185C26.625 57.1916 26.375 59.3144 26.875 60.5632C27.875 63.5601 30.75 66.0575 34.375 67.0565L34.875 67.1814C38.125 68.0555 39 68.3052 77.75 71.8016C79.125 71.9265 80.75 72.0514 82.375 72.3011C87 72.9255 92.5 73.5499 98.25 73.5499ZM98 49.6993C109.125 49.6993 119.75 51.0729 126.875 59.1896C127.375 59.8139 127.75 60.3134 127.75 60.9378C127.75 61.5621 127.25 62.1865 126.625 62.8109C114.625 74.6737 95.25 72.5509 82.375 71.1773C80.75 71.0524 79.25 70.8027 77.75 70.6778C39.125 67.1814 38.125 66.9316 35 66.0575L34.5 65.9327C32 65.3083 28.875 63.4352 27.875 60.3134C27.625 59.5642 27.625 57.6911 28.75 56.0678C30.125 54.0698 32.75 52.8211 36.375 52.5713C39.375 52.3216 42.625 52.1967 46 51.947C57.25 51.1978 70.125 50.3236 84 50.0739C85.875 50.0739 87.75 49.949 89.625 49.949C92.5 49.8242 95.25 49.6993 98 49.6993Z" fill="#1D3175"></path></g><g id="Group_5"><path id="Vector_7" d="M108 68.5548C113 68.5548 114.625 63.9345 114.75 61.0625C114.875 57.8158 112.625 55.3184 110 54.3194C109.125 53.9448 108.25 53.695 107.375 53.9448C106.5 54.1945 105.75 55.0686 105.875 55.9427C106 56.8168 106.75 57.4412 107.25 58.1904C108 59.1894 108.25 61.562 107.75 62.6858C107.375 63.6848 105.75 64.8086 105.875 66.0574C105.75 68.1802 107.25 68.5548 108 68.5548Z" fill="#1EAE98" fill-opacity="0.19"></path><path id="Vector_8" d="M107.875 69.1791C108 69.1791 108 69.1791 107.875 69.1791C113.5 69.1791 115.125 63.9344 115.25 61.1873C115.375 57.3162 112.5 54.8188 110.125 53.8198C109 53.3203 108 53.1954 107.125 53.4452C106 53.6949 105 54.8188 105.125 56.1924C105.25 57.0665 105.75 57.6908 106.25 58.1903C106.375 58.4401 106.625 58.5649 106.75 58.8147C107.375 59.6888 107.625 61.8116 107.25 62.8106C107.125 63.0603 106.875 63.4349 106.5 63.8096C105.875 64.5588 105.25 65.4329 105.25 66.4319C105.125 68.305 106.5 69.1791 107.875 69.1791ZM108 54.569C108.5 54.569 109 54.6939 109.625 54.9437C111.75 55.8178 114.125 57.9406 114 61.1873C113.875 63.5598 112.625 68.0552 107.875 68.0552C107.375 68.0552 106.375 67.9303 106.25 66.307C106.25 65.6826 106.75 65.0583 107.25 64.4339C107.625 63.9344 108 63.5598 108.125 63.1852C108.75 61.8116 108.375 59.3142 107.5 58.0655C107.375 57.8157 107.125 57.566 107 57.3162C106.625 56.8167 106.25 56.4421 106.25 55.9426C106.125 55.3183 106.75 54.6939 107.375 54.569C107.625 54.569 107.875 54.569 108 54.569Z" fill="#1D3175"></path></g><g id="Group_6"><path id="Vector_9" d="M0.625008 60.063L13.625 59.9382C14 59.9382 14.25 59.6884 14.25 59.3138C14.25 58.9392 14 58.6895 13.625 58.6895L0.5 58.8143C0.125 58.8143 -0.125 59.0641 -0.125 59.4387C0 59.8133 0.250008 60.063 0.625008 60.063Z" fill="#1D3175"></path></g><g id="Group_7"><path id="Vector_10" d="M15 50.3237C15.375 50.3237 15.625 50.0739 15.625 49.6993C15.625 49.3247 15.375 49.0749 15 49.0749L7.99999 48.8252C7.62499 48.8252 7.37499 49.0749 7.37499 49.4496C7.37499 49.8242 7.62499 50.0739 7.99999 50.0739L15 50.3237Z" fill="#1D3175"></path></g><g id="Group_8"><path id="Vector_11" d="M8.12502 69.679L15.25 68.9298C15.625 68.9298 15.875 68.5552 15.75 68.3054C15.75 67.9308 15.375 67.681 15.125 67.8059L8.00001 68.4303C7.62501 68.4303 7.37502 68.8049 7.50002 69.0546C7.50002 69.4293 7.87502 69.679 8.12502 69.679Z" fill="#1D3175"></path></g><g id="Group_9"><path id="Vector_12" d="M77.75 114.882C77.875 114.882 78 114.757 78 114.633C78 114.508 77.875 114.383 77.75 114.383H71.625C71.5 114.383 71.375 114.508 71.375 114.633C71.375 114.757 71.5 114.882 71.625 114.882H77.75Z" fill="#1D3175"></path></g><g id="Group_10"><path id="Vector_13" d="M75.375 110.637C75.5 110.637 75.625 110.512 75.625 110.387C75.625 110.262 75.5 110.137 75.375 110.137L71.625 109.888C71.5 109.888 71.375 110.013 71.375 110.137C71.375 110.262 71.5 110.387 71.625 110.387L75.375 110.637Z" fill="#1D3175"></path></g><g id="Group_11"><path id="Vector_14" d="M74.875 106.017C75 106.017 75.125 105.892 75.125 105.767C75.125 105.642 75 105.517 74.875 105.517L71.25 105.268C71.125 105.268 71 105.392 71 105.517C71 105.642 71.125 105.767 71.25 105.767L74.875 106.017Z" fill="#1D3175"></path></g><g id="Group_12"><path id="Vector_15" d="M80 6.99288C80.125 6.99288 80.25 6.86801 80.25 6.74314C80.25 6.61827 80.125 6.4934 80 6.4934C77.75 6.36852 75.375 6.24365 73.125 6.24365C73 6.24365 72.875 6.36852 72.875 6.4934C72.875 6.61827 73 6.74314 73.125 6.74314C75.375 6.74314 77.625 6.86801 80 6.99288Z" fill="#1D3175"></path></g><g id="Group_13"><path id="Vector_16" d="M73.75 11.7381C75 11.7381 76.125 11.7381 77.375 11.6133C77.5 11.6133 77.625 11.4884 77.625 11.3635C77.625 11.2386 77.5 11.1138 77.375 11.1138C76 11.2386 74.625 11.2386 73.375 11.2386C73.25 11.2386 73.125 11.3635 73.125 11.4884C73.125 11.6133 73.25 11.7381 73.375 11.7381C73.5 11.7381 73.625 11.7381 73.75 11.7381Z" fill="#1D3175"></path></g><g id="Group_14"><path id="Vector_17" d="M75.875 15.9839C76 15.9839 76.125 15.859 76.125 15.7341C76.125 15.6092 76 15.4844 75.875 15.4844H73.5C73.375 15.4844 73.25 15.6092 73.25 15.7341C73.25 15.859 73.375 15.9839 73.5 15.9839H75.875Z" fill="#1D3175"></path></g></g></g><defs><clipPath id="clip0_107_502"><rect width="129" height="122" fill="white" transform="matrix(-1 0 0 1 129 0)"></rect></clipPath></defs></svg>